<svg width="20" height="20" viewBox="0 0 20 20" fill="none" xmlns="http://www.w3.org/2000/svg">
<path d="M3.28125 5.625H16.7188M3.28125 9.375H16.7188M16.7188 15H3.28125M16.7188 15V5C16.7188 4.50272 16.5212 4.02581 16.1696 3.67417C15.8179 3.32254 15.341 3.125 14.8438 3.125H5.15625C4.65897 3.125 4.18206 3.32254 3.83042 3.67417C3.47879 4.02581 3.28125 4.50272 3.28125 5V15M16.7188 15V16.875C16.7188 17.0408 16.6529 17.1997 16.5357 17.3169C16.4185 17.4342 16.2595 17.5 16.0938 17.5H14.2188C14.053 17.5 13.894 17.4342 13.7768 17.3169C13.6596 17.1997 13.5938 17.0408 13.5938 16.875V15M3.28125 15V16.875C3.28125 17.0408 3.3471 17.1997 3.46431 17.3169C3.58152 17.4342 3.74049 17.5 3.90625 17.5H5.78125C5.94701 17.5 6.10598 17.4342 6.22319 17.3169C6.3404 17.1997 6.40625 17.0408 6.40625 16.875V15" stroke="#668099" stroke-width="1.25" stroke-linecap="round" stroke-linejoin="round"/>
<path d="M6.5625 13.125C7.08027 13.125 7.5 12.7053 7.5 12.1875C7.5 11.6697 7.08027 11.25 6.5625 11.25C6.04473 11.25 5.625 11.6697 5.625 12.1875C5.625 12.7053 6.04473 13.125 6.5625 13.125Z" fill="#668099"/>
<path d="M13.4375 13.125C13.9553 13.125 14.375 12.7053 14.375 12.1875C14.375 11.6697 13.9553 11.25 13.4375 11.25C12.9197 11.25 12.5 11.6697 12.5 12.1875C12.5 12.7053 12.9197 13.125 13.4375 13.125Z" fill="#668099"/>
</svg>
