<svg width="20" height="20" viewBox="0 0 20 20" fill="none" xmlns="http://www.w3.org/2000/svg">
<path d="M1.25 9.375H18.75M17.5 14.375V16.25C17.5 16.4158 17.4342 16.5747 17.3169 16.6919C17.1997 16.8092 17.0408 16.875 16.875 16.875H15C14.8342 16.875 14.6753 16.8092 14.5581 16.6919C14.4408 16.5747 14.375 16.4158 14.375 16.25V14.375M17.5 14.375H2.5M17.5 14.375V9.375L15.165 4.12116C15.1159 4.01069 15.0358 3.91682 14.9344 3.85094C14.833 3.78506 14.7147 3.75 14.5938 3.75H5.40617C5.28527 3.75 5.16697 3.78506 5.0656 3.85094C4.96423 3.91682 4.88414 4.01069 4.83504 4.12116L2.5 9.375V14.375M5.625 14.375V16.25C5.625 16.4158 5.55915 16.5747 5.44194 16.6919C5.32473 16.8092 5.16576 16.875 5 16.875H3.125C2.95924 16.875 2.80027 16.8092 2.68306 16.6919C2.56585 16.5747 2.5 16.4158 2.5 16.25V14.375M5 11.875H6.25M13.75 11.875H15" stroke="#668099" stroke-width="1.25" stroke-linecap="round" stroke-linejoin="round"/>
</svg>
