<svg width="24" height="24" viewBox="0 0 24 24" fill="none" xmlns="http://www.w3.org/2000/svg">
<path d="M12.7507 6.00049L18.0011 11.2508M8.69118 20.2512H4.50029C4.30137 20.2512 4.11059 20.1722 3.96993 20.0315C3.82927 19.8909 3.75025 19.7001 3.75025 19.5012V15.3103C3.74991 15.2129 3.76878 15.1164 3.80578 15.0263C3.84278 14.9362 3.89719 14.8543 3.96589 14.7852L15.2166 3.53455C15.2864 3.46368 15.3696 3.4074 15.4613 3.36899C15.553 3.33057 15.6515 3.31079 15.751 3.31079C15.8504 3.31079 15.9489 3.33057 16.0407 3.36899C16.1324 3.4074 16.2156 3.46368 16.2854 3.53455L20.4669 7.71606C20.5378 7.78585 20.594 7.86904 20.6325 7.96078C20.6709 8.05253 20.6907 8.151 20.6907 8.25046C20.6907 8.34993 20.6709 8.4484 20.6325 8.54014C20.594 8.63189 20.5378 8.71508 20.4669 8.78487L9.21621 20.0356C9.14717 20.1043 9.06526 20.1587 8.97517 20.1957C8.88508 20.2327 8.78857 20.2515 8.69118 20.2512Z" stroke="#668099" stroke-width="1.25008" stroke-linecap="round" stroke-linejoin="round"/>
</svg>
