<svg width="111" height="40" viewBox="0 0 111 40" fill="none" xmlns="http://www.w3.org/2000/svg">
<path d="M56.0945 16.1333V12.5333H51.6612V6H48.0612V12.5333H45.3945V16.1333H48.0612V29.3333H56.0945V25.7333H51.6612V16.1333H56.0945Z" fill="#0064C5"/>
<path d="M70.0833 12.5333H60.0833V29.3333H63.6833V16.1333H70.0833V12.5333Z" fill="#0064C5"/>
<path d="M73.4375 6V9.33333H77.0375V6H73.4375ZM73.4375 12.5333V29.3333H77.0375V12.5333H73.4375Z" fill="#0064C5"/>
<path d="M89.4896 12.5333C87.2229 12.5333 85.5896 13.4 84.5562 14.5333V12.5333H80.9896V34.6667H84.5896V28.7667H84.5562V27.3667C85.5896 28.4667 87.2229 29.3333 89.4896 29.3333C94.8562 29.3333 96.8229 25.8333 96.8229 20.9333C96.8229 16.0333 94.8562 12.5333 89.4896 12.5333ZM88.8896 25.7333C85.7562 25.7333 84.5562 24.8 84.5562 20.9333C84.5562 17.0667 85.7562 16.1333 88.8896 16.1333C92.0562 16.1333 93.2562 17.0667 93.2562 20.9333C93.2562 24.8 92.0562 25.7333 88.8896 25.7333Z" fill="#0064C5"/>
<path d="M8.5 12.5333C6.23333 12.5333 4.6 13.4 3.56667 14.5333V13.2333H3.6V6H0V29.3333H3.56667V27.3667C4.6 28.4667 6.23333 29.3333 8.5 29.3333C13.8667 29.3333 15.8333 25.8333 15.8333 20.9333C15.8333 16.0333 13.8667 12.5333 8.5 12.5333ZM7.9 25.7333C4.76667 25.7333 3.56667 24.8 3.56667 20.9333C3.56667 17.0667 4.76667 16.1333 7.9 16.1333C11.0667 16.1333 12.2667 17.0667 12.2667 20.9333C12.2667 24.8 11.0667 25.7333 7.9 25.7333Z" fill="#E0F0FF"/>
<path d="M19.1406 6V9.33333H22.7406V6H19.1406ZM19.1406 12.5333V29.3333H22.7406V12.5333H19.1406Z" fill="#E0F0FF"/>
<path d="M41.7422 12.5333H27.0755V16.1333H36.0755L27.0755 26.9333V29.3333H41.7422V25.7333H32.7755L41.7422 14.9333V12.5333Z" fill="#E0F0FF"/>
</svg>
